<?xml version="1.0" encoding="UTF-8" standalone="no"?>
<svg width="16px" height="23px" viewBox="0 0 16 23" version="1.1" xmlns="http://www.w3.org/2000/svg" xmlns:xlink="http://www.w3.org/1999/xlink">
    <!-- Generator: Sketch 40.3 (33839) - http://www.bohemiancoding.com/sketch -->
    <title>ic_location</title>
    <desc>Created with Sketch.</desc>
    <defs></defs>
    <g id="Page-1" stroke="none" stroke-width="1" fill="none" fill-rule="evenodd">
        <g id="my-events" transform="translate(-168.000000, -532.000000)" fill="#C686D1">
            <g id="event" transform="translate(98.000000, 357.000000)">
                <g id="Group-7">
                    <g id="what-is-new" transform="translate(56.000000, 31.000000)">
                        <g id="location" transform="translate(14.000000, 114.000000)">
                            <g id="ic_location" transform="translate(0.000000, 30.000000)">
                                <path d="M6.67869737,21.8892717 C7.27049553,22.8166677 8.24032626,22.8101382 8.82986472,21.8763418 C8.82986472,21.8763418 15.3987483,11.9756975 15.3987483,7.75154457 C15.3987483,3.5273916 11.9743957,0.103039036 7.75024274,0.103039036 C3.52608977,0.103039036 0.101737206,3.5273916 0.101737206,7.75154457 C0.101737206,11.9756975 6.67869737,21.8892717 6.67869737,21.8892717 Z M7.67440667,11.5861226 C9.74242795,11.5861226 11.4188904,9.90966011 11.4188904,7.84163883 C11.4188904,5.77361754 9.74242795,4.09715506 7.67440667,4.09715506 C5.60638539,4.09715506 3.9299229,5.77361754 3.9299229,7.84163883 C3.9299229,9.90966011 5.60638539,11.5861226 7.67440667,11.5861226 Z" id="Combined-Shape"></path>
                            </g>
                        </g>
                    </g>
                </g>
            </g>
        </g>
    </g>
</svg>