<?xml version="1.0" encoding="UTF-8" standalone="no"?>
<svg width="21px" height="21px" viewBox="0 0 21 21" version="1.1" xmlns="http://www.w3.org/2000/svg" xmlns:xlink="http://www.w3.org/1999/xlink">
    <!-- Generator: Sketch 40.3 (33839) - http://www.bohemiancoding.com/sketch -->
    <title>ic_search</title>
    <desc>Created with Sketch.</desc>
    <defs></defs>
    <g id="Page-1" stroke="none" stroke-width="1" fill="none" fill-rule="evenodd">
        <g id="friends-copy-15" transform="translate(-502.000000, -122.000000)" fill="#FFFFFF">
            <g id="search" transform="translate(152.000000, 113.000000)">
                <g transform="translate(350.000000, 9.000000)" id="Shape">
                    <path d="M0.481729761,7.86660016 C0.481729761,11.9446333 3.78828505,15.2511886 7.86631818,15.2511886 C9.43447965,15.2511886 10.8887804,14.7620655 12.0842249,13.9289079 L17.5618324,19.4048081 C17.6634627,19.5064384 17.8250655,19.5090459 17.9293343,19.4048081 L19.4053953,17.9287472 C19.5070256,17.8271168 19.5018106,17.6585918 19.4045261,17.5612762 L13.9285949,12.0853761 C14.7617525,10.8890624 15.2508756,9.43473059 15.2508756,7.86660016 C15.2508756,3.78856703 11.9443203,0.48201174 7.86628714,0.48201174 C3.78828505,0.48201174 0.481729761,3.78856703 0.481729761,7.86660016 Z M7.86628714,13.5136329 C4.74737855,13.5136329 2.21925441,10.9855087 2.21925441,7.86660016 C2.21925441,4.74769157 4.74740959,2.21956743 7.86628714,2.21956743 C10.9851647,2.21956743 13.5133199,4.74769157 13.5133199,7.86660016 C13.5133199,10.9855087 10.9851957,13.5136329 7.86628714,13.5136329 L7.86628714,13.5136329 Z"></path>
                </g>
            </g>
        </g>
    </g>
</svg>