<?xml version="1.0" encoding="UTF-8" standalone="no"?>
<svg width="55px" height="43px" viewBox="0 0 55 43" version="1.1" xmlns="http://www.w3.org/2000/svg" xmlns:xlink="http://www.w3.org/1999/xlink">
    <!-- Generator: Sketch 40.3 (33839) - http://www.bohemiancoding.com/sketch -->
    <title>ic_cloud</title>
    <desc>Created with Sketch.</desc>
    <defs></defs>
    <g id="Page-1" stroke="none" stroke-width="1" fill="none" fill-rule="evenodd">
        <g id="Artboard" transform="translate(-95.000000, -9.000000)">
            <g id="Group-6" transform="translate(95.000000, 9.000000)">
                <g id="Group-3" transform="translate(1.000000, 1.000000)">
                    <path d="M28.31842,36.4785238 C29.8955417,37.1846189 31.5624768,37.5872949 33.1484373,37.5872949 C35.6345411,37.5872949 37.5069048,36.5978092 38.8237679,35.0011701 C39.7545017,35.1623543 40.7279236,35.2436651 41.7299153,35.2436651 C48.3836095,35.2436651 53,29.6042852 53,23.9649053 C53,18.6063883 48.8319871,13.2478714 42.7085758,12.727413 C42.7672057,12.2579091 42.7974223,11.7794162 42.7974223,11.2937636 C42.7974223,5.05639021 37.8131996,0 31.6648493,0 C27.6816068,0 24.1869681,2.1222516 22.2196774,5.31297043 C20.7892442,4.3042864 19.0513127,3.71301818 17.1772542,3.71301818 C12.2922635,3.71301818 8.33219617,7.7304241 8.33219617,12.6861454 C8.33219617,13.6391727 8.47864957,14.5574987 8.74997026,15.4192247 C3.42298327,17.4221822 0,21.7019462 0,26.2325507 C0,32.4699242 6.48777766,36.8207636 15.4997432,36.8207636 C17.7783546,36.8207636 19.9478815,36.497511 21.9178159,35.9136483 C22.0396431,36.2258645 22.0581325,36.522494 21.8795862,36.7487736 C21.5661464,37.1460095 20.821168,38.6162488 19.3371725,39.348948 C17.1096201,40.4487665 13.671024,40.4670817 13.9505403,40.8149089 C14.2300567,41.1627361 17.4303721,40.9908594 20.5322762,40.5446308 C23.6341803,40.0984022 24.5428602,39.6275422 25.0615831,39.348948 C26.2890183,38.6897205 27.5062116,37.429582 28.31842,36.4785238 Z" id="Combined-Shape" stroke="#292929" stroke-width="0.5" stroke-linecap="round" stroke-linejoin="round" fill="#FFFFFF"></path>
                    <path d="M32.3170732,23.0625 C32.0295236,25.9452808 29.8242063,28.1875 27.1463415,28.1875 C24.4684766,28.1875 22.2631593,25.9452808 21.9756098,23.0625 L22.5208348,23.0625 L32.3170732,23.0625 Z" id="Combined-Shape" stroke="#292929" stroke-width="0.6" stroke-linecap="round" stroke-linejoin="round" fill="#292929"></path>
                    <ellipse id="Oval-14" fill="#292929" cx="21.9756098" cy="16.65625" rx="1.29268293" ry="1.28125"></ellipse>
                    <ellipse id="Oval-14-Copy" fill="#292929" cx="33.6097561" cy="16.65625" rx="1.29268293" ry="1.28125"></ellipse>
                    <ellipse id="Oval-15" fill="#C686D1" cx="27.1463415" cy="26.90625" rx="2.58536585" ry="1.28125"></ellipse>
                    <ellipse id="Oval-16" fill="#EDD6F1" cx="38.7804878" cy="24.34375" rx="2.58536585" ry="2.5625"></ellipse>
                    <ellipse id="Oval-16-Copy" fill="#EDD6F1" cx="15.5121951" cy="24.34375" rx="2.58536585" ry="2.5625"></ellipse>
                    <ellipse id="Oval-16-Copy-2" fill="#EDD6F1" cx="16.1585366" cy="5.765625" rx="0.646341463" ry="0.640625"></ellipse>
                    <path d="M41.3658537,15.5544075 C41.386302,15.5500877 41.4067766,15.5458433 41.4272772,15.5416745 C41.965106,15.4323072 42.5208379,15.375 43.0894309,15.375 C47.848958,15.375 51.7073171,19.3904462 51.7073171,24.34375 C51.7073171,29.2970538 47.848958,33.3125 43.0894309,33.3125 C42.4991646,33.3125 41.9227586,33.2507407 41.3658537,33.1330925 C45.2994711,32.3021013 48.2601626,28.6827558 48.2601626,24.34375 C48.2601626,20.0047442 45.2994711,16.3853987 41.3658537,15.5544075 Z" id="Combined-Shape" fill="#D3CEE2"></path>
                    <path d="M12.0361107,7.57213189 C12.1989977,7.05158314 12.7696266,6.629595 13.3319081,6.629595 L13.2211645,6.629595 C13.7739267,6.629595 14.1154933,7.06260039 13.9895865,7.59341984 C13.9895865,7.59341984 13.6955758,8.71897205 13.6955758,9.14081104 C13.6955758,9.56513612 13.9957102,10.7738831 13.9957102,10.7738831 C14.1207026,11.3155153 13.7834459,11.754595 13.2211645,11.754595 L13.3319081,11.754595 C12.7791459,11.754595 12.1701166,11.3319598 11.9854745,10.8171042 C11.9854745,10.8171042 11.6059265,9.92237659 11.6059265,9.35648285 C11.6059265,8.84071258 12.0361107,7.57213189 12.0361107,7.57213189 Z" id="Rectangle-18" fill="#EDD6F1" transform="translate(12.813802, 9.192095) rotate(35.000000) translate(-12.813802, -9.192095) "></path>
                </g>
            </g>
        </g>
    </g>
</svg>