<?xml version="1.0" encoding="UTF-8" standalone="no"?>
<svg width="26px" height="27px" viewBox="0 0 26 27" version="1.1" xmlns="http://www.w3.org/2000/svg" xmlns:xlink="http://www.w3.org/1999/xlink">
    <!-- Generator: Sketch 40.3 (33839) - http://www.bohemiancoding.com/sketch -->
    <title>ic_search</title>
    <desc>Created with Sketch.</desc>
    <defs></defs>
    <g id="Page-1" stroke="none" stroke-width="1" fill="none" fill-rule="evenodd">
        <g id="other-person-profile-friends" transform="translate(-712.000000, -381.000000)" fill="#D2CEE2">
            <g id="friends" transform="translate(98.000000, 343.000000)">
                <g id="search" transform="translate(596.000000, 31.000000)">
                    <g id="search-magnifier-interface-symbol" transform="translate(18.000000, 7.000000)">
                        <g id="Capa_1">
                            <path d="M10.3152496,1 C5.17181077,1 1.00137031,5.17044046 1.00137031,10.3139184 C1.00137031,15.4573964 5.17181077,19.6278369 10.3152887,19.6278369 C12.293155,19.6278369 14.1274127,19.0109233 15.6351843,17.9600914 L15.6362806,17.9589951 L22.5438956,24.8666493 C22.6720783,24.994832 22.8759021,24.9981207 23.0074127,24.8666493 L24.8691158,23.0049462 C24.9972985,22.8767635 24.990721,22.6642088 24.8680196,22.5414682 L17.9614225,15.6349103 C19.0122545,14.1260424 19.629168,12.2917455 19.629168,10.3139184 C19.629168,5.17044046 15.4587276,1 10.3152496,1 L10.3152496,1 Z M10.3152496,17.4363197 C6.38148124,17.4363197 3.19284829,14.2476868 3.19284829,10.3139184 C3.19284829,6.38015008 6.38152039,3.19151713 10.3152496,3.19151713 C14.2489788,3.19151713 17.4376509,6.38015008 17.4376509,10.3139184 C17.4376509,14.2476868 14.2490179,17.4363197 10.3152496,17.4363197 L10.3152496,17.4363197 Z" id="Shape"></path>
                        </g>
                    </g>
                </g>
            </g>
        </g>
    </g>
</svg>