<?xml version="1.0" encoding="UTF-8" standalone="no"?>
<svg width="24px" height="25px" viewBox="0 0 24 25" version="1.1" xmlns="http://www.w3.org/2000/svg" xmlns:xlink="http://www.w3.org/1999/xlink">
    <!-- Generator: Sketch 40.3 (33839) - http://www.bohemiancoding.com/sketch -->
    <title>ic_search_hold</title>
    <desc>Created with Sketch.</desc>
    <defs></defs>
    <g id="Page-1" stroke="none" stroke-width="1" fill="none" fill-rule="evenodd">
        <g id="friends-copy-15" transform="translate(-1143.000000, -18.000000)" fill="#FFFFFF">
            <g id="up">
                <g id="search-magnifier-interface-symbol" transform="translate(1143.000000, 18.000000)">
                    <g id="Capa_1">
                        <path d="M0,10.3279012 C0,15.4791009 4.17670142,19.6558023 9.32790116,19.6558023 C11.3087367,19.6558023 13.1457482,19.0379626 14.6557834,17.9855531 L21.5748665,24.9024796 C21.7032416,25.0308547 21.9073714,25.0341484 22.0390795,24.9024796 L23.9035775,23.0379816 C24.0319526,22.9096064 24.0253653,22.6967327 23.9024796,22.5738078 C23.9024796,22.5738078 22.4764448,21.147781 21.7634273,20.4347676 C20.1707895,18.8421389 16.9855139,15.6568813 16.9855139,15.6568813 C18.0379234,14.1457482 18.6557631,12.3086975 18.6557631,10.3279012 C18.6557631,5.17670142 14.4790617,1 9.32786195,1 C4.17670142,1 0,5.17670142 0,10.3279012 Z M2,10.133094 C2,6.19341996 5.19345917,3 9.13309397,3 C13.0727288,3 16.2661879,6.19341996 16.2661879,10.133094 C16.2661879,14.072768 13.072768,17.2661879 9.13309397,17.2661879 C5.19341996,17.2661879 2,14.072768 2,10.133094 Z" id="Shape"></path>
                    </g>
                </g>
            </g>
        </g>
    </g>
</svg>