<?xml version="1.0" encoding="UTF-8" standalone="no"?>
<svg width="31px" height="27px" viewBox="0 0 31 27" version="1.1" xmlns="http://www.w3.org/2000/svg" xmlns:xlink="http://www.w3.org/1999/xlink">
    <!-- Generator: Sketch 40.3 (33839) - http://www.bohemiancoding.com/sketch -->
    <title>ic_sing_out</title>
    <desc>Created with Sketch.</desc>
    <defs></defs>
    <g id="Page-1" stroke="none" stroke-width="1" fill="none" fill-rule="evenodd" opacity="0.599172108">
        <g id="edit-profile-with-dropdown" transform="translate(-1236.000000, -17.000000)" fill="#FFFFFF">
            <g id="up">
                <g id="sign-out-option" transform="translate(1236.000000, 17.000000)">
                    <g id="Capa_1" transform="translate(1.000000, 1.000000)">
                        <g id="Group">
                            <path d="M12.8758192,22.8090813 C12.8369257,22.7072609 12.8235305,22.6206935 12.8367217,22.5506501 C12.8498449,22.4810751 12.8046277,22.4234081 12.7009341,22.3789871 C12.5972405,22.3345661 12.5454957,22.2993103 12.5454957,22.2741562 C12.5454957,22.2487346 12.4711763,22.2295345 12.3221975,22.2169575 C12.1732867,22.2041798 12.0989673,22.1976906 12.0989673,22.1976906 L11.8467029,22.1976906 L11.6331961,22.1976906 L6.04217404,22.1976906 C5.18801088,22.1976906 4.45671613,21.8987185 3.84835777,21.2998379 C3.2401354,20.7013587 2.93605821,19.9820597 2.93605821,19.1418072 L2.93605821,5.69522453 C2.93605821,4.8548382 3.2400674,4.13560612 3.84835777,3.53712688 C4.45671613,2.93858076 5.18801088,2.63920734 6.04217404,2.63920734 L12.2543377,2.63920734 C12.4226273,2.63920734 12.5549471,2.5981313 12.6522491,2.51517643 C12.7491431,2.43242226 12.8137391,2.30819066 12.8462411,2.14268232 C12.8786071,1.97717398 12.8981219,1.82772142 12.9046495,1.69399014 C12.9110411,1.56039267 12.9079133,1.39153937 12.8948581,1.18783165 C12.8820069,0.984190833 12.8755473,0.85688187 12.8755473,0.805704069 C12.8755473,0.640195728 12.8140111,0.49723238 12.6911427,0.376011234 C12.5681383,0.255325282 12.4226273,0.194781608 12.2544057,0.194781608 L6.04217404,0.194781608 C4.50220531,0.194781608 3.18526279,0.732784064 2.09155046,1.80872208 C0.998110109,2.88466009 0.451287941,4.18016091 0.451287941,5.69542522 L0.451287941,19.1417403 C0.451287941,20.6568708 0.998110109,21.9527061 2.09155046,23.0282427 C3.18526279,24.1047159 4.50220531,24.6427184 6.04217404,24.6427184 L12.2546097,24.6427184 C12.4228993,24.6427184 12.5552871,24.6011072 12.6525211,24.5186875 C12.7494151,24.4357995 12.8140111,24.3117017 12.8465131,24.1459927 C12.8788791,23.980685 12.8983938,23.8304966 12.9049214,23.6973005 C12.9113131,23.5635692 12.9081852,23.3950504 12.8951301,23.1913427 C12.8821429,22.9874343 12.8758192,22.8601922 12.8758192,22.8090813 L12.8758192,22.8090813 Z" id="Shape"></path>
                            <path d="M30.5223595,11.5591971 L19.9616609,1.16849782 C19.7159241,0.926858315 19.4246301,0.80563717 19.0881189,0.80563717 C18.7516077,0.80563717 18.4603137,0.926858315 18.214305,1.16849782 C17.9683642,1.41047181 17.8454958,1.6972682 17.8454958,2.02815108 L17.8454958,7.5289954 L9.14842586,7.5289954 C8.81171069,7.5289954 8.5206207,7.65021654 8.27467991,7.89185604 C8.02873913,8.13383004 7.90587073,8.42042573 7.90587073,8.75150931 L7.90587073,16.0860576 C7.90587073,16.4170743 8.02873913,16.70367 8.27467991,16.9455102 C8.52089268,17.1870159 8.81191468,17.3085715 9.14842586,17.3085715 L17.8455638,17.3085715 L17.8455638,22.8093489 C17.8455638,23.1401649 17.9684322,23.4270282 18.214373,23.6688015 C18.4603137,23.9107755 18.7516077,24.0319297 19.0881869,24.0319297 C19.4246301,24.0319297 19.7159241,23.9107755 19.9617288,23.6688015 L30.5223595,13.2785705 C30.7683003,13.0363958 30.8912366,12.7502015 30.8912366,12.419051 C30.8912366,12.0880344 30.7683003,11.8011711 30.5223595,11.5591971 L30.5223595,11.5591971 Z" id="Shape"></path>
                        </g>
                    </g>
                </g>
            </g>
        </g>
    </g>
</svg>