<?xml version="1.0" encoding="UTF-8" standalone="no"?>
<svg width="242px" height="131px" viewBox="0 0 242 131" version="1.1" xmlns="http://www.w3.org/2000/svg" xmlns:xlink="http://www.w3.org/1999/xlink">
    <!-- Generator: Sketch 40.3 (33839) - http://www.bohemiancoding.com/sketch -->
    <title>ic_chat</title>
    <desc>Created with Sketch.</desc>
    <defs>
        <rect id="path-1" x="68.233467" y="43.233467" width="7" height="7" rx="1"></rect>
        <mask id="mask-2" maskContentUnits="userSpaceOnUse" maskUnits="objectBoundingBox" x="0" y="0" width="7" height="7" fill="white">
            <use xlink:href="#path-1"></use>
        </mask>
    </defs>
    <g id="Page-1" stroke="none" stroke-width="1" fill="none" fill-rule="evenodd">
        <g id="Artboard" transform="translate(-562.000000, -616.000000)">
            <g id="chat" transform="translate(562.000000, 616.000000)">
                <g transform="translate(1.000000, 0.000000)">
                    <path d="M54.2849399,0 C54.2849399,0 44.72013,1.52568181 43.8455705,12.5331964 C42.9710111,23.5407109 54.4761119,26.257329 54.4761119,26.257329 C54.4761119,26.257329 64.1379341,28.17141 64.1379341,38.2177664 C64.1379341,48.2641227 56.5706897,49.1189289 56.5706897,49.1189289 C54.4843217,49.8356931 50.9989414,50.4167453 48.8002071,50.4167453 L13.0983696,50.4167453 C10.8932184,50.4167453 7.49865378,51.2260141 5.67613197,52.460297 C5.67613197,52.460297 0,53.916039 0,63.9233311 C6.86355631e-16,71.5446462 5.23794385,75.3971874 8.21808687,76.7625354 C9.15106925,77.1899799 10.7753343,77.3008534 10.7753343,77.3008534 L50.6940232,77.3008534 C50.6940232,77.3008534 52.9627514,77.3389093 54.9312416,78.4024118 C57.9739128,80.0462547 61.1990435,83.7120774 61.1990435,90.1546488 C61.1990435,96.8143168 58.533622,101.289913 55.451776,103.210516 C53.623402,104.349957 50.6940232,104.164524 50.6940232,104.164524 L40.8449272,104.164524 C40.8449272,104.164524 38.6995204,104.190462 36.5041841,105.113161 C32.9650864,106.600643 28.7096957,110.203423 28.7096957,118.17253 C28.7096957,126.94837 33.4332343,129.620627 37.0247185,130.496136 C38.7176009,130.908816 40.8449272,131 40.8449272,131 L173.174662,131 L173.174662,0.256346557 L54.2849399,0 Z" id="Path-7-Copy-2" fill="#FBF7FC"></path>
                    <path d="M122.28494,1.13686838e-13 C122.28494,1.13686838e-13 112.72013,1.52568181 111.845571,12.5331964 C110.971011,23.5407109 122.476112,26.257329 122.476112,26.257329 C122.476112,26.257329 132.137934,28.17141 132.137934,38.2177664 C132.137934,48.2641227 124.57069,49.1189289 124.57069,49.1189289 C122.484322,49.8356931 118.998941,50.4167453 116.800207,50.4167453 L81.0983696,50.4167453 C78.8932184,50.4167453 75.4986538,51.2260141 73.676132,52.460297 C73.676132,52.460297 68,53.916039 68,63.9233311 C68,71.5446462 73.2379439,75.3971874 76.2180869,76.7625354 C77.1510692,77.1899799 78.7753343,77.3008534 78.7753343,77.3008534 L118.694023,77.3008534 C118.694023,77.3008534 120.962751,77.3389093 122.931242,78.4024118 C125.973913,80.0462547 129.199043,83.7120774 129.199043,90.1546488 C129.199043,96.8143168 126.533622,101.289913 123.451776,103.210516 C121.623402,104.349957 118.694023,104.164524 118.694023,104.164524 L108.844927,104.164524 C108.844927,104.164524 106.69952,104.190462 104.504184,105.113161 C100.965086,106.600643 96.7096957,110.203423 96.7096957,118.17253 C96.7096957,126.94837 101.433234,129.620627 105.024719,130.496136 C106.717601,130.908816 108.844927,131 108.844927,131 L241.174662,131 L241.174662,0.256346557 L122.28494,1.13686838e-13 Z" id="Path-7-Copy-3" fill="#FBF7FC" transform="translate(154.587331, 65.500000) rotate(-180.000000) translate(-154.587331, -65.500000) "></path>
                    <path d="M65.244655,106.355547 C65.244655,106.355547 63.6726382,110.690908 68.498245,110.690908 C73.3238517,110.690908 90.5683516,110.590022 90.5683516,110.590022 C90.5683516,110.590022 93.1169182,109.438497 92.6349487,105.628455 C92.1529791,101.818412 86.0804782,99.234772 86.0804782,99.234772 C86.0804782,99.234772 81.7242301,103.499592 78.841871,102.90846 C75.9595118,102.317328 75.6174435,103.08974 71.4448405,99.3482693 C70.0193589,98.070075 67.6326466,100.64061 66.7031744,101.738413 C64.9119391,103.854046 65.244655,106.355547 65.244655,106.355547 Z" id="Path-4" fill="#9582D6"></path>
                    <ellipse id="Oval-7" fill="#E5A332" cx="79" cy="91.5" rx="7" ry="8.5"></ellipse>
                    <path d="M114.650582,44.1570466 L115.76867,35.6680949 L120.18847,34.218386 L155.757984,35.2558339 L157.922581,38.8801062 L157.84194,62.8610095 L151.144285,65.4614249 L152.021359,76.3052474 L145.58737,70.5064119 C145.58737,70.5064119 144.218301,62.4723064 144.218301,60.6193972 C144.218301,58.766488 143.412807,47.3590911 143.412807,47.3590911 L139.798501,45.4554421 L114.650582,44.1570466 Z" id="Path-3" fill="#75699D"></path>
                    <path d="M109,56.465 L122,56.465 C122.553,56.465 123,56.017 123,55.465 C123,54.913 122.553,54.465 122,54.465 L109,54.465 C108.447,54.465 108,54.913 108,55.465 C108,56.017 108.447,56.465 109,56.465 L109,56.465 Z" id="Shape" fill="#292929"></path>
                    <path d="M135,60.465 L109,60.465 C108.447,60.465 108,60.913 108,61.465 C108,62.017 108.447,62.465 109,62.465 L135,62.465 C135.553,62.465 136,62.017 136,61.465 C136,60.913 135.553,60.465 135,60.465 L135,60.465 Z" id="Shape" fill="#292929"></path>
                    <path d="M135,66.465 L109,66.465 C108.447,66.465 108,66.913 108,67.465 C108,68.017 108.447,68.465 109,68.465 L135,68.465 C135.553,68.465 136,68.017 136,67.465 C136,66.913 135.553,66.465 135,66.465 L135,66.465 Z" id="Shape" fill="#292929"></path>
                    <path d="M153.072,33.535 L118.93,33.465 C115.66,33.465 113,36.125 113,39.395 L113,44.519 L104.93,44.536 C101.66,44.536 99,47.196 99,50.466 L99,71.607 C99,74.877 101.66,77.536 104.93,77.536 L111,77.536 L111,87.536 C111,87.949 111.254,88.32 111.64,88.469 C111.757,88.514 111.879,88.536 112,88.536 C112.276,88.536 112.547,88.421 112.74,88.209 L122.444,77.534 L139.07,77.466 C142.34,77.466 145,74.806 145,71.537 L145,71.424 L150.26,77.21 C150.453,77.422 150.724,77.537 151,77.537 C151.121,77.537 151.243,77.515 151.36,77.47 C151.746,77.321 152,76.95 152,76.537 L152,66.537 L153.07,66.537 C156.34,66.537 159,63.877 159,60.608 L159,39.465 C159,36.196 156.341,33.536 153.072,33.535 L153.072,33.535 Z M143,71.536 C143,73.703 141.237,75.465 139.066,75.465 L121.996,75.535 C121.716,75.536 121.448,75.655 121.26,75.862 L113,84.949 L113,76.535 C113,75.983 112.553,75.535 112,75.535 L104.93,75.535 C102.763,75.535 101,73.772 101,71.606 L101,50.465 C101,48.298 102.763,46.535 104.932,46.535 L114,46.516 L114,46.516 L114.002,46.516 L139.07,46.464 C141.237,46.464 143,48.227 143,50.394 L143,68.835 L143,71.536 L143,71.536 Z M157,60.606 C157,62.773 155.237,64.535 153.07,64.535 L151,64.535 C150.447,64.535 150,64.983 150,65.535 L150,73.949 L145,68.449 L145,50.395 C145,47.125 142.34,44.465 139.068,44.465 L115,44.514 L115,39.394 C115,37.227 116.763,35.464 118.928,35.464 L153.069,35.534 L153.071,35.534 C155.238,35.534 157.001,37.297 157.001,39.464 L157.001,60.606 L157,60.606 Z" id="Shape" fill="#292929"></path>
                    <path d="M89.278,111.273 L67.963,111.273 C65.777,111.273 64,109.496 64,107.31 L64,105.998 C64,101.736 67.334,98.233 71.591,98.023 L72.071,98 L72.363,98.382 C73.97,100.49 76.248,101.7 78.612,101.7 C80.975,101.7 83.254,100.49 84.863,98.382 L85.153,98.001 L85.632,98.023 C89.898,98.223 93.239,101.726 93.239,105.998 L93.239,107.31 C93.241,109.496 91.463,111.273 89.278,111.273 L89.278,111.273 Z M71.227,99.889 C68.165,100.265 65.829,102.866 65.829,105.998 L65.829,107.31 C65.829,108.487 66.787,109.445 67.964,109.445 L89.278,109.445 C90.455,109.445 91.413,108.487 91.413,107.31 L91.413,105.998 C91.413,102.858 89.07,100.257 86.001,99.888 C84.063,102.208 81.397,103.529 78.613,103.529 C75.829,103.529 73.163,102.209 71.227,99.889 L71.227,99.889 Z" id="Shape" fill="#292929"></path>
                    <path d="M78.771,100.973 C74.486,100.973 71,96.717 71,91.487 C71,86.256 74.485,82 78.771,82 C83.057,82 86.542,86.256 86.542,91.487 C86.541,96.717 83.056,100.973 78.771,100.973 L78.771,100.973 Z M78.771,83.827 C75.495,83.827 72.829,87.263 72.829,91.486 C72.829,95.709 75.495,99.144 78.771,99.144 C82.047,99.144 84.713,95.708 84.713,91.486 C84.713,87.263 82.047,83.827 78.771,83.827 L78.771,83.827 Z" id="Shape" fill="#292929"></path>
                    <path d="M97.556,103.055 C97.051,103.055 96.642,102.646 96.642,102.141 L96.642,100.99 C96.642,98.31 94.658,96.087 92.047,95.743 C91.717,96.134 91.362,96.495 90.987,96.821 C90.607,97.152 90.029,97.112 89.697,96.73 C89.366,96.349 89.407,95.772 89.788,95.44 C90.193,95.087 90.572,94.682 90.914,94.235 L91.205,93.854 L91.684,93.876 C95.49,94.055 98.47,97.18 98.47,100.989 L98.47,102.14 C98.47,102.646 98.061,103.055 97.556,103.055 L97.556,103.055 Z" id="Shape" fill="#292929"></path>
                    <path d="M90.082,94.078 C89.903,94.078 89.724,94.026 89.565,93.918 C89.149,93.632 89.044,93.063 89.329,92.647 C90.162,91.435 90.621,89.877 90.621,88.262 C90.621,84.616 88.33,81.65 85.515,81.65 C85.01,81.65 84.601,81.241 84.601,80.736 C84.601,80.231 85.01,79.822 85.515,79.822 C89.339,79.822 92.45,83.608 92.45,88.262 C92.45,90.243 91.878,92.168 90.838,93.682 C90.659,93.939 90.373,94.078 90.082,94.078 L90.082,94.078 Z" id="Shape" fill="#292929"></path>
                    <path d="M59.914,103.2 C59.409,103.2 59,102.791 59,102.286 L59,101.135 C59,97.325 61.98,94.2 65.786,94.022 L66.265,94 L66.556,94.381 C66.898,94.828 67.277,95.234 67.682,95.586 C68.063,95.918 68.104,96.495 67.773,96.876 C67.442,97.258 66.864,97.298 66.483,96.967 C66.108,96.641 65.754,96.279 65.423,95.889 C62.813,96.233 60.828,98.456 60.828,101.136 L60.828,102.287 C60.828,102.791 60.419,103.2 59.914,103.2 L59.914,103.2 Z" id="Shape" fill="#292929"></path>
                    <path d="M67.367,94.256 C67.076,94.256 66.79,94.117 66.612,93.86 C65.572,92.346 65,90.422 65,88.44 C65,83.786 68.11,80 71.935,80 C72.44,80 72.849,80.409 72.849,80.914 C72.849,81.419 72.44,81.828 71.935,81.828 C69.12,81.828 66.829,84.795 66.829,88.44 C66.829,90.055 67.288,91.613 68.121,92.825 C68.406,93.241 68.301,93.81 67.885,94.096 C67.725,94.204 67.545,94.256 67.367,94.256 L67.367,94.256 Z" id="Shape" fill="#292929"></path>
                    <use id="Rectangle-6-Copy" stroke="#EDD6F1" mask="url(#mask-2)" stroke-width="4" transform="translate(71.733467, 46.733467) rotate(-28.000000) translate(-71.733467, -46.733467) " xlink:href="#path-1"></use>
                    <circle id="Oval-9-Copy" stroke="#D6CAFF" stroke-width="2" cx="134" cy="98" r="2"></circle>
                    <circle id="Oval-9-Copy-2" stroke="#C7C7C7" stroke-width="2" cx="158" cy="11" r="2"></circle>
                    <polygon id="Star-2-Copy" stroke="#EDDBBC" stroke-width="2" points="175.5 69.25 173.025126 69.9748737 173.75 67.5 173.025126 65.0251263 175.5 65.75 177.974874 65.0251263 177.25 67.5 177.974874 69.9748737"></polygon>
                </g>
            </g>
        </g>
    </g>
</svg>