<?xml version="1.0" encoding="UTF-8" standalone="no"?>
<svg width="240px" height="131px" viewBox="0 0 240 131" version="1.1" xmlns="http://www.w3.org/2000/svg" xmlns:xlink="http://www.w3.org/1999/xlink">
    <!-- Generator: Sketch 40.3 (33839) - http://www.bohemiancoding.com/sketch -->
    <title>ic_events</title>
    <desc>Created with Sketch.</desc>
    <defs>
        <path d="M93,38.7367318 C93,37.6313588 93.8910687,36.735277 95.0079121,36.735277 L105.671975,36.735277 L133.004911,36.735277 L140.984702,36.735277 L151.00243,36.735277 C152.105657,36.735277 153,37.6290484 153,38.7367318 L153,84.9985451 C153,86.1039181 152.10527,87 151.003693,87 L94.9963074,87 C93.8937773,87 93,86.1062286 93,84.9985451 L93,38.7367318 Z" id="path-1"></path>
        <mask id="mask-2" maskContentUnits="userSpaceOnUse" maskUnits="objectBoundingBox" x="0" y="0" width="60" height="50.264723" fill="white">
            <use xlink:href="#path-1"></use>
        </mask>
        <rect id="path-3" x="102.739533" y="29" width="6.57534247" height="8.77434402" rx="2"></rect>
        <mask id="mask-4" maskContentUnits="userSpaceOnUse" maskUnits="objectBoundingBox" x="0" y="0" width="6.57534247" height="8.77434402" fill="white">
            <use xlink:href="#path-3"></use>
        </mask>
        <rect id="path-5" x="136.132218" y="29" width="6.57534247" height="8.77434402" rx="2"></rect>
        <mask id="mask-6" maskContentUnits="userSpaceOnUse" maskUnits="objectBoundingBox" x="0" y="0" width="6.57534247" height="8.77434402" fill="white">
            <use xlink:href="#path-5"></use>
        </mask>
        <rect id="path-7" x="70.233467" y="45.233467" width="7" height="7" rx="1"></rect>
        <mask id="mask-8" maskContentUnits="userSpaceOnUse" maskUnits="objectBoundingBox" x="0" y="0" width="7" height="7" fill="white">
            <use xlink:href="#path-7"></use>
        </mask>
    </defs>
    <g id="Page-1" stroke="none" stroke-width="1" fill="none" fill-rule="evenodd">
        <g id="Artboard" transform="translate(-965.000000, -616.000000)">
            <g id="events" transform="translate(965.000000, 616.000000)">
                <g>
                    <path d="M54.2849399,0 C54.2849399,0 44.72013,1.52568181 43.8455705,12.5331964 C42.9710111,23.5407109 54.4761119,26.257329 54.4761119,26.257329 C54.4761119,26.257329 64.1379341,28.17141 64.1379341,38.2177664 C64.1379341,48.2641227 56.5706897,49.1189289 56.5706897,49.1189289 C54.4843217,49.8356931 50.9989414,50.4167453 48.8002071,50.4167453 L13.0983696,50.4167453 C10.8932184,50.4167453 7.49865378,51.2260141 5.67613197,52.460297 C5.67613197,52.460297 0,53.916039 0,63.9233311 C6.86355631e-16,71.5446462 5.23794385,75.3971874 8.21808687,76.7625354 C9.15106925,77.1899799 10.7753343,77.3008534 10.7753343,77.3008534 L50.6940232,77.3008534 C50.6940232,77.3008534 52.9627514,77.3389093 54.9312416,78.4024118 C57.9739128,80.0462547 61.1990435,83.7120774 61.1990435,90.1546488 C61.1990435,96.8143168 58.533622,101.289913 55.451776,103.210516 C53.623402,104.349957 50.6940232,104.164524 50.6940232,104.164524 L40.8449272,104.164524 C40.8449272,104.164524 38.6995204,104.190462 36.5041841,105.113161 C32.9650864,106.600643 28.7096957,110.203423 28.7096957,118.17253 C28.7096957,126.94837 33.4332343,129.620627 37.0247185,130.496136 C38.7176009,130.908816 40.8449272,131 40.8449272,131 L173.174662,131 L173.174662,0.256346557 L54.2849399,0 Z" id="Path-7-Copy-4" fill="#FBF7FC"></path>
                    <path d="M121.28494,1.13686838e-13 C121.28494,1.13686838e-13 111.72013,1.52568181 110.845571,12.5331964 C109.971011,23.5407109 121.476112,26.257329 121.476112,26.257329 C121.476112,26.257329 131.137934,28.17141 131.137934,38.2177664 C131.137934,48.2641227 123.57069,49.1189289 123.57069,49.1189289 C121.484322,49.8356931 117.998941,50.4167453 115.800207,50.4167453 L80.0983696,50.4167453 C77.8932184,50.4167453 74.4986538,51.2260141 72.676132,52.460297 C72.676132,52.460297 67,53.916039 67,63.9233311 C67,71.5446462 72.2379439,75.3971874 75.2180869,76.7625354 C76.1510692,77.1899799 77.7753343,77.3008534 77.7753343,77.3008534 L117.694023,77.3008534 C117.694023,77.3008534 119.962751,77.3389093 121.931242,78.4024118 C124.973913,80.0462547 128.199043,83.7120774 128.199043,90.1546488 C128.199043,96.8143168 125.533622,101.289913 122.451776,103.210516 C120.623402,104.349957 117.694023,104.164524 117.694023,104.164524 L107.844927,104.164524 C107.844927,104.164524 105.69952,104.190462 103.504184,105.113161 C99.9650864,106.600643 95.7096957,110.203423 95.7096957,118.17253 C95.7096957,126.94837 100.433234,129.620627 104.024719,130.496136 C105.717601,130.908816 107.844927,131 107.844927,131 L240.174662,131 L240.174662,0.256346557 L121.28494,1.13686838e-13 Z" id="Path-7-Copy-5" fill="#FBF7FC" transform="translate(153.587331, 65.500000) rotate(-180.000000) translate(-153.587331, -65.500000) "></path>
                    <rect id="Rectangle-7" fill="#FFFFFF" x="95" y="38" width="58" height="48"></rect>
                    <path d="M52,85 L57.9449423,85 L61.8371595,83.1423208 L64.0263315,80.3886689 L72.1108047,80.3886689 C73.1872151,80.3886689 76.9076587,85 76.9076587,85 L85,85 L85,108 L52,108 L52,85 Z" id="Rectangle-7-Copy" fill="#FFFFFF"></path>
                    <rect id="Rectangle-3" fill="#9582D6" x="95" y="38" width="56" height="7"></rect>
                    <use id="Rectangle-4" stroke="#292929" mask="url(#mask-2)" stroke-width="4" xlink:href="#path-1"></use>
                    <path d="M124.968297,74.9951381 C124.472416,74.7421299 123.674179,74.7391987 123.172554,74.9951381 L117.155174,78.065324 C116.171693,78.5671154 115.530667,78.0898089 115.72258,77.0038853 L116.860618,70.5643827 C116.957044,70.0187643 116.714643,69.2731945 116.308819,68.8892854 L111.457701,64.30013 C110.652635,63.5385382 110.879948,62.7970547 111.979197,62.6420373 L118.736683,61.689088 C119.281093,61.6123146 119.926306,61.1491574 120.171361,60.6672725 L123.164234,54.7819689 C123.66471,53.7978147 124.479475,53.8043705 124.976616,54.7819689 L127.96949,60.6672725 C128.21743,61.1548322 128.861442,61.6125521 129.404168,61.689088 L136.161654,62.6420373 C137.254734,62.7961848 137.491605,63.5353321 136.68315,64.30013 L131.832031,68.8892854 C131.430855,69.2687977 131.183513,70.017107 131.280232,70.5643827 L132.41827,77.0038853 C132.610552,78.0918931 131.963914,78.5644403 130.985676,78.065324 L124.968297,74.9951381 Z" id="Star" stroke="#292929" stroke-width="2" fill="#E5A332"></path>
                    <path d="M101.5,45 L145.5,45" id="Line" stroke="#292929" stroke-width="2" stroke-linecap="square"></path>
                    <use id="Rectangle-5" stroke="#292929" mask="url(#mask-4)" stroke-width="4" xlink:href="#path-3"></use>
                    <use id="Rectangle-5-Copy" stroke="#292929" mask="url(#mask-6)" stroke-width="4" xlink:href="#path-5"></use>
                    <path d="M179.655476,102.968173 C179.655476,102.968173 189.155476,92.5468768 189.155476,86.6483682 C189.155476,80.7498595 184.902181,75.9681735 179.655476,75.9681735 C174.408771,75.9681735 170.155476,80.7498595 170.155476,86.6483682 C170.155476,92.5468768 179.655476,102.968173 179.655476,102.968173 Z M179.655454,89.624656 C181.760944,89.624656 183.467782,87.9178186 183.467782,85.812328 C183.467782,83.7068374 181.760944,82 179.655454,82 C177.549963,82 175.843126,83.7068374 175.843126,85.812328 C175.843126,87.9178186 177.549963,89.624656 179.655454,89.624656 Z" id="Combined-Shape" stroke="#292929" stroke-width="2" fill="#75699D"></path>
                    <g id="photo-camera-(1)" transform="translate(50.000000, 79.000000)">
                        <g id="Capa_1">
                            <g id="Group">
                                <circle id="Oval-6" fill="#C686D1" cx="18.5" cy="17.5" r="6.5"></circle>
                                <path d="M0,9.18467337 L0,25.4811558 C0,27.968593 2.02367347,29.9886935 4.5155102,29.9886935 L32.4844898,29.9886935 C34.9763265,29.9886935 37,27.968593 37,25.4811558 L37,9.18467337 C37,6.8178392 35.0744898,4.89572864 32.7034694,4.89572864 L26.6928571,4.89572864 L26.5493878,4.2701005 C25.9679592,1.76005025 23.7555102,0.0113065327 21.1730612,0.0113065327 L15.8193878,0.0113065327 C13.2444898,0.0113065327 11.0320408,1.76005025 10.4430612,4.2701005 L10.2995918,4.89572864 L4.29653061,4.89572864 C1.9255102,4.89572864 0,6.82537688 0,9.18467337 L0,9.18467337 Z M11.0395918,6.74246231 C11.47,6.74246231 11.84,6.44849246 11.9381633,6.02638191 L12.2477551,4.68467337 C12.6404082,3.01884422 14.1053061,1.8580402 15.8193878,1.8580402 L21.1730612,1.8580402 C22.8871429,1.8580402 24.3520408,3.01884422 24.7446939,4.68467337 L25.0542857,6.02638191 C25.152449,6.44095477 25.522449,6.74246231 25.9528571,6.74246231 L32.6959184,6.74246231 C34.047551,6.74246231 35.142449,7.83542714 35.142449,9.18467337 L35.142449,25.4811558 C35.142449,26.951005 33.9493878,28.1419598 32.4769388,28.1419598 L4.5155102,28.1419598 C3.04306122,28.1419598 1.85,26.951005 1.85,25.4811558 L1.85,9.18467337 C1.85,7.83542714 2.94489796,6.74246231 4.29653061,6.74246231 L11.0395918,6.74246231 L11.0395918,6.74246231 Z" id="Shape" fill="#292929"></path>
                                <ellipse id="Oval" fill="#292929" cx="6.25979592" cy="10.6846734" rx="1.23836735" ry="1.2361809"></ellipse>
                                <path d="M18.5,25.2474874 C22.7814286,25.2474874 26.27,21.7650754 26.27,17.491206 C26.27,13.2173367 22.7814286,9.73492462 18.5,9.73492462 C14.2185714,9.73492462 10.73,13.209799 10.73,17.491206 C10.73,21.7726131 14.2185714,25.2474874 18.5,25.2474874 L18.5,25.2474874 Z M18.5,11.5816583 C21.7620408,11.5816583 24.42,14.2349246 24.42,17.491206 C24.42,20.7474874 21.7620408,23.4007538 18.5,23.4007538 C15.2379592,23.4007538 12.58,20.7474874 12.58,17.491206 C12.58,14.2349246 15.2379592,11.5816583 18.5,11.5816583 L18.5,11.5816583 Z" id="Shape" fill="#292929"></path>
                            </g>
                        </g>
                    </g>
                    <use id="Rectangle-6-Copy-2" stroke="#EDD6F1" mask="url(#mask-8)" stroke-width="4" transform="translate(73.733467, 48.733467) rotate(-28.000000) translate(-73.733467, -48.733467) " xlink:href="#path-7"></use>
                    <circle id="Oval-9-Copy-3" stroke="#D6CAFF" stroke-width="2" cx="136" cy="100" r="2"></circle>
                    <circle id="Oval-9-Copy-4" stroke="#C7C7C7" stroke-width="2" cx="160" cy="13" r="2"></circle>
                    <polygon id="Star-2-Copy-3" stroke="#EDDBBC" stroke-width="2" points="177.5 71.25 175.025126 71.9748737 175.75 69.5 175.025126 67.0251263 177.5 67.75 179.974874 67.0251263 179.25 69.5 179.974874 71.9748737"></polygon>
                </g>
            </g>
        </g>
    </g>
</svg>