<?xml version="1.0" encoding="UTF-8" standalone="no"?>
<svg width="242px" height="131px" viewBox="0 0 242 131" version="1.1" xmlns="http://www.w3.org/2000/svg" xmlns:xlink="http://www.w3.org/1999/xlink">
    <!-- Generator: Sketch 40.3 (33839) - http://www.bohemiancoding.com/sketch -->
    <title>ic_follow</title>
    <desc>Created with Sketch.</desc>
    <defs>
        <path d="M89.5954226,76.3707622 C84.8517734,77.8685824 80.5252502,81.7259047 78.9756045,86.2481785 L78.5616984,87.4560652 C76.5688765,93.2716435 79.9376322,98 86.0919,98 L113.390322,98 C119.552182,98 122.907263,93.2793196 120.901062,87.4560652 L120.484927,86.2481785 C118.981667,81.884775 114.896913,78.14583 110.355341,76.5413553 C108.22194,80.0058677 104.394173,82.3155766 100.026944,82.3155766 C95.5884195,82.3155766 91.707114,79.92984 89.5954226,76.3707622 Z" id="path-1"></path>
        <mask id="mask-2" maskContentUnits="userSpaceOnUse" maskUnits="objectBoundingBox" x="0" y="0" width="43.4936483" height="21.6292378" fill="white">
            <use xlink:href="#path-1"></use>
        </mask>
        <rect id="path-3" x="166.233467" y="43.233467" width="7" height="7" rx="1"></rect>
        <mask id="mask-4" maskContentUnits="userSpaceOnUse" maskUnits="objectBoundingBox" x="0" y="0" width="7" height="7" fill="white">
            <use xlink:href="#path-3"></use>
        </mask>
        <rect id="path-5" x="81.233467" y="110.233467" width="7" height="7" rx="1"></rect>
        <mask id="mask-6" maskContentUnits="userSpaceOnUse" maskUnits="objectBoundingBox" x="0" y="0" width="7" height="7" fill="white">
            <use xlink:href="#path-5"></use>
        </mask>
    </defs>
    <g id="Page-1" stroke="none" stroke-width="1" fill="none" fill-rule="evenodd">
        <g id="Artboard" transform="translate(-362.000000, -851.000000)">
            <g id="follow" transform="translate(362.000000, 851.000000)">
                <g transform="translate(1.000000, 0.000000)">
                    <path d="M54.2849399,0 C54.2849399,0 44.72013,1.52568181 43.8455705,12.5331964 C42.9710111,23.5407109 54.4761119,26.257329 54.4761119,26.257329 C54.4761119,26.257329 64.1379341,28.17141 64.1379341,38.2177664 C64.1379341,48.2641227 56.5706897,49.1189289 56.5706897,49.1189289 C54.4843217,49.8356931 50.9989414,50.4167453 48.8002071,50.4167453 L13.0983696,50.4167453 C10.8932184,50.4167453 7.49865378,51.2260141 5.67613197,52.460297 C5.67613197,52.460297 0,53.916039 0,63.9233311 C6.86355631e-16,71.5446462 5.23794385,75.3971874 8.21808687,76.7625354 C9.15106925,77.1899799 10.7753343,77.3008534 10.7753343,77.3008534 L50.6940232,77.3008534 C50.6940232,77.3008534 52.9627514,77.3389093 54.9312416,78.4024118 C57.9739128,80.0462547 61.1990435,83.7120774 61.1990435,90.1546488 C61.1990435,96.8143168 58.533622,101.289913 55.451776,103.210516 C53.623402,104.349957 50.6940232,104.164524 50.6940232,104.164524 L40.8449272,104.164524 C40.8449272,104.164524 38.6995204,104.190462 36.5041841,105.113161 C32.9650864,106.600643 28.7096957,110.203423 28.7096957,118.17253 C28.7096957,126.94837 33.4332343,129.620627 37.0247185,130.496136 C38.7176009,130.908816 40.8449272,131 40.8449272,131 L173.174662,131 L173.174662,0.256346557 L54.2849399,0 Z" id="Path-7-Copy-6" fill="#FBF7FC"></path>
                    <path d="M121.28494,-1.13686838e-13 C121.28494,-1.13686838e-13 111.72013,1.52568181 110.845571,12.5331964 C109.971011,23.5407109 121.476112,26.257329 121.476112,26.257329 C121.476112,26.257329 131.137934,28.17141 131.137934,38.2177664 C131.137934,48.2641227 123.57069,49.1189289 123.57069,49.1189289 C121.484322,49.8356931 117.998941,50.4167453 115.800207,50.4167453 L80.0983696,50.4167453 C77.8932184,50.4167453 74.4986538,51.2260141 72.676132,52.460297 C72.676132,52.460297 67,53.916039 67,63.9233311 C67,71.5446462 72.2379439,75.3971874 75.2180869,76.7625354 C76.1510692,77.1899799 77.7753343,77.3008534 77.7753343,77.3008534 L117.694023,77.3008534 C117.694023,77.3008534 119.962751,77.3389093 121.931242,78.4024118 C124.973913,80.0462547 128.199043,83.7120774 128.199043,90.1546488 C128.199043,96.8143168 125.533622,101.289913 122.451776,103.210516 C120.623402,104.349957 117.694023,104.164524 117.694023,104.164524 L107.844927,104.164524 C107.844927,104.164524 105.69952,104.190462 103.504184,105.113161 C99.9650864,106.600643 95.7096957,110.203423 95.7096957,118.17253 C95.7096957,126.94837 100.433234,129.620627 104.024719,130.496136 C105.717601,130.908816 107.844927,131 107.844927,131 L240.174662,131 L240.174662,0.256346557 L121.28494,-1.13686838e-13 Z" id="Path-7-Copy-7" fill="#FBF7FC" transform="translate(153.587331, 65.500000) rotate(-180.000000) translate(-153.587331, -65.500000) "></path>
                    <path d="M78.8568759,90.2714101 C78.8568759,90.2714101 79.9469883,93.8537687 81.135687,95.3001594 C81.9010698,96.2314656 84.7191202,97.4045007 84.7191202,97.4045007 C84.7191202,97.4045007 108.370314,97.9981942 114.9877,96.4785035 C121.605085,94.9588128 119.840302,86.0184332 119.840302,86.0184332 L111.411056,78.0896792 C111.411056,78.0896792 103.939723,85.0058495 99.4362848,83.9945818 C94.9328468,82.983314 95.063465,84.684493 88.5441319,78.2838426 C86.3169398,76.0971958 82.5879072,80.4946903 81.135687,82.372735 C78.337036,85.9920153 78.8568759,90.2714101 78.8568759,90.2714101 Z" id="Path-4-Copy" fill="#9582D6"></path>
                    <ellipse id="Oval-5" stroke="#292929" stroke-width="2" fill="#FFFFFF" cx="99.1188811" cy="60.2196988" rx="13.3846154" ry="15.8412572"></ellipse>
                    <path d="M95.4685315,67.189852 C95.4685315,67.189852 96.8703586,69.6023584 100.335664,69.4684635 C103.417246,69.6231433 105.202797,67.1998823 105.202797,67.1998823" id="Path-2-Copy" stroke="#292929" stroke-width="2"></path>
                    <ellipse id="Oval-4-Copy-2" stroke="#292929" stroke-width="2" cx="93.9475524" cy="57.3682725" rx="0.912587413" ry="0.950475434"></ellipse>
                    <ellipse id="Oval-4-Copy-3" stroke="#292929" stroke-width="2" cx="104.29021" cy="57.3682725" rx="0.912587413" ry="0.950475434"></ellipse>
                    <g id="right-arrow" transform="translate(145.500000, 71.664760) rotate(-180.000000) translate(-145.500000, -71.664760) translate(128.000000, 59.664760)" stroke-width="2" stroke="#000000" fill="#C686D1">
                        <g id="Capa_1" transform="translate(-0.000000, 0.000000)">
                            <g id="Layer_5_55_">
                                <path d="M34.2469993,10.8038777 L19.731965,0.308186218 C19.1627057,-0.195793102 18.6971363,0.0265770345 18.6971363,0.802859102 L18.6971363,5.19370734 C18.6971363,5.96972095 18.0847448,6.60488523 17.3367454,6.60488523 L8.35005678,6.61884489 L1.35348972,6.61884489 L1.35348972,6.63003051 C0.608250861,6.63432579 0.000172528964,7.26743191 0,8.04085046 L0.000172528964,15.4492212 C0.000172528964,16.2253243 0.612219027,16.8604886 1.36013208,16.8604886 L17.1832809,16.8358802 L17.34149,16.8358802 C18.087419,16.8383858 18.6973088,17.4718498 18.6973088,18.2466107 L18.6973088,22.6373694 C18.6973088,23.4136515 19.1628782,23.6362901 19.7318788,23.1326687 L34.2471718,12.6366193 C34.8161723,12.132282 34.8161723,11.3079465 34.2469993,10.8038777 L34.2469993,10.8038777 Z" id="Shape"></path>
                            </g>
                        </g>
                    </g>
                    <g id="Group-2" transform="translate(85.000000, 42.000000)" stroke="#292929" stroke-width="2" fill="#E5A332">
                        <path d="M16.6026417,8.92428258 C18.9125763,7.84543369 23.5045032,4.48154518 24.9526055,2.08810666 C26.4007078,-0.305331854 14.0889142,0.0652669396 7.58999852,2.56067023 C1.09108281,5.05607353 0.734265734,13.3992183 0.734265734,13.3992183 C0.734265734,13.3992183 10.8397964,11.6158042 16.6026417,8.92428258 Z" id="Path-2"></path>
                    </g>
                    <use id="Combined-Shape" stroke="#292929" mask="url(#mask-2)" stroke-width="4" xlink:href="#path-1"></use>
                    <use id="Rectangle-6-Copy-4" stroke="#EDD6F1" mask="url(#mask-4)" stroke-width="4" transform="translate(169.733467, 46.733467) rotate(-28.000000) translate(-169.733467, -46.733467) " xlink:href="#path-3"></use>
                    <use id="Rectangle-6-Copy-5" stroke="#EDD6F1" mask="url(#mask-6)" stroke-width="4" transform="translate(84.733467, 113.733467) rotate(-28.000000) translate(-84.733467, -113.733467) " xlink:href="#path-5"></use>
                    <ellipse id="Oval-9-Copy-7" stroke="#D6CAFF" stroke-width="2" cx="152" cy="118" rx="2" ry="2"></ellipse>
                    <ellipse id="Oval-9-Copy-8" stroke="#C7C7C7" stroke-width="2" cx="136" cy="21" rx="2" ry="2"></ellipse>
                    <polygon id="Star-2-Copy-5" stroke="#EDDBBC" stroke-width="2" points="86.5 28.25 84.0251263 28.9748737 84.75 26.5 84.0251263 24.0251263 86.5 24.75 88.9748737 24.0251263 88.25 26.5 88.9748737 28.9748737"></polygon>
                </g>
            </g>
        </g>
    </g>
</svg>