<?xml version="1.0" encoding="UTF-8" standalone="no"?>
<svg width="242px" height="131px" viewBox="0 0 242 131" version="1.1" xmlns="http://www.w3.org/2000/svg" xmlns:xlink="http://www.w3.org/1999/xlink">
    <!-- Generator: Sketch 40.3 (33839) - http://www.bohemiancoding.com/sketch -->
    <title>ic_login</title>
    <desc>Created with Sketch.</desc>
    <defs>
        <rect id="path-1" x="145.233467" y="12.233467" width="7" height="7" rx="1"></rect>
        <mask id="mask-2" maskContentUnits="userSpaceOnUse" maskUnits="objectBoundingBox" x="0" y="0" width="7" height="7" fill="white">
            <use xlink:href="#path-1"></use>
        </mask>
    </defs>
    <g id="Page-1" stroke="none" stroke-width="1" fill="none" fill-rule="evenodd">
        <g id="Artboard" transform="translate(-163.000000, -616.000000)">
            <g id="login" transform="translate(163.000000, 616.000000)">
                <g transform="translate(1.000000, 0.000000)">
                    <path d="M54.2849399,0 C54.2849399,0 44.72013,1.52568181 43.8455705,12.5331964 C42.9710111,23.5407109 54.4761119,26.257329 54.4761119,26.257329 C54.4761119,26.257329 64.1379341,28.17141 64.1379341,38.2177664 C64.1379341,48.2641227 56.5706897,49.1189289 56.5706897,49.1189289 C54.4843217,49.8356931 50.9989414,50.4167453 48.8002071,50.4167453 L13.0983696,50.4167453 C10.8932184,50.4167453 7.49865378,51.2260141 5.67613197,52.460297 C5.67613197,52.460297 0,53.916039 0,63.9233311 C6.86355631e-16,71.5446462 5.23794385,75.3971874 8.21808687,76.7625354 C9.15106925,77.1899799 10.7753343,77.3008534 10.7753343,77.3008534 L50.6940232,77.3008534 C50.6940232,77.3008534 52.9627514,77.3389093 54.9312416,78.4024118 C57.9739128,80.0462547 61.1990435,83.7120774 61.1990435,90.1546488 C61.1990435,96.8143168 58.533622,101.289913 55.451776,103.210516 C53.623402,104.349957 50.6940232,104.164524 50.6940232,104.164524 L40.8449272,104.164524 C40.8449272,104.164524 38.6995204,104.190462 36.5041841,105.113161 C32.9650864,106.600643 28.7096957,110.203423 28.7096957,118.17253 C28.7096957,126.94837 33.4332343,129.620627 37.0247185,130.496136 C38.7176009,130.908816 40.8449272,131 40.8449272,131 L173.174662,131 L173.174662,0.256346557 L54.2849399,0 Z" id="Path-7" fill="#FBF7FC"></path>
                    <path d="M121.28494,0 C121.28494,0 111.72013,1.52568181 110.845571,12.5331964 C109.971011,23.5407109 121.476112,26.257329 121.476112,26.257329 C121.476112,26.257329 131.137934,28.17141 131.137934,38.2177664 C131.137934,48.2641227 123.57069,49.1189289 123.57069,49.1189289 C121.484322,49.8356931 117.998941,50.4167453 115.800207,50.4167453 L80.0983696,50.4167453 C77.8932184,50.4167453 74.4986538,51.2260141 72.676132,52.460297 C72.676132,52.460297 67,53.916039 67,63.9233311 C67,71.5446462 72.2379439,75.3971874 75.2180869,76.7625354 C76.1510692,77.1899799 77.7753343,77.3008534 77.7753343,77.3008534 L117.694023,77.3008534 C117.694023,77.3008534 119.962751,77.3389093 121.931242,78.4024118 C124.973913,80.0462547 128.199043,83.7120774 128.199043,90.1546488 C128.199043,96.8143168 125.533622,101.289913 122.451776,103.210516 C120.623402,104.349957 117.694023,104.164524 117.694023,104.164524 L107.844927,104.164524 C107.844927,104.164524 105.69952,104.190462 103.504184,105.113161 C99.9650864,106.600643 95.7096957,110.203423 95.7096957,118.17253 C95.7096957,126.94837 100.433234,129.620627 104.024719,130.496136 C105.717601,130.908816 107.844927,131 107.844927,131 L240.174662,131 L240.174662,0.256346557 L121.28494,0 Z" id="Path-7-Copy" fill="#FBF7FC" transform="translate(153.587331, 65.500000) rotate(-180.000000) translate(-153.587331, -65.500000) "></path>
                    <g id="share" transform="translate(89.000000, 29.000000)" stroke-width="0.5" stroke="#292929" fill="#292929">
                        <g id="Group">
                            <path d="M54.319,37.839 C54.762,35.918 55,33.96 55,32 C55,22.905 50.369,14.623 42.611,9.847 C42.138,9.557 41.524,9.704 41.235,10.174 C40.945,10.645 41.092,11.26 41.562,11.55 C48.724,15.96 53,23.604 53,32 C53,33.726 52.8,35.451 52.427,37.147 C51.966,37.051 51.489,37 51,37 C47.14,37 44,40.141 44,44 C44,47.859 47.14,51 51,51 C54.86,51 58,47.859 58,44 C58,41.341 56.509,39.024 54.319,37.839 L54.319,37.839 Z M51,49 C48.243,49 46,46.757 46,44 C46,41.243 48.243,39 51,39 C53.757,39 56,41.243 56,44 C56,46.757 53.757,49 51,49 L51,49 Z" id="Shape"></path>
                            <path d="M38.171,54.182 C35.256,55.388 32.171,56 29,56 C22.615,56 16.473,53.425 11.983,48.908 C13.229,47.643 14,45.911 14,44 C14,40.141 10.86,37 7,37 C3.14,37 0,40.141 0,44 C0,47.859 3.14,51 7,51 C8.226,51 9.378,50.681 10.381,50.125 C15.26,55.136 21.994,58 29,58 C32.435,58 35.778,57.337 38.936,56.029 C39.446,55.818 39.689,55.233 39.478,54.722 C39.267,54.213 38.681,53.971 38.171,54.182 L38.171,54.182 Z M2,44 C2,41.243 4.243,39 7,39 C9.757,39 12,41.243 12,44 C12,46.757 9.757,49 7,49 C4.243,49 2,46.757 2,44 L2,44 Z" id="Shape"></path>
                            <path d="M4,31.213 C4.024,31.215 4.048,31.216 4.071,31.216 C4.592,31.216 5.03,30.814 5.068,30.286 C5.78,20.197 12.654,11.766 22.288,8.972 C23.142,11.874 25.825,14 29,14 C32.86,14 36,10.859 36,7 C36,3.141 32.86,0 29,0 C25.149,0 22.015,3.127 22.001,6.975 C11.42,9.922 3.851,19.12 3.073,30.146 C3.034,30.696 3.449,31.175 4,31.213 L4,31.213 Z M29,2 C31.757,2 34,4.243 34,7 C34,9.757 31.757,12 29,12 C26.243,12 24,9.757 24,7 C24,4.243 26.243,2 29,2 L29,2 Z" id="Shape"></path>
                        </g>
                    </g>
                    <g id="linkedin-logo" transform="translate(152.000000, 30.000000)" fill="#292929">
                        <g id="Capa_1">
                            <path d="M18.9756676,13.0709058 L18.9756676,21.3011724 L14.9085676,21.3011724 L14.9085676,13.6221194 C14.9085676,11.6930787 14.3203055,10.3765839 12.8481501,10.3765839 C11.7243462,10.3765839 11.0555697,11.2638049 10.7613503,12.122042 C10.6540567,12.4288584 10.6264392,12.8559066 10.6264392,13.2853874 L10.6264392,21.3011724 L6.55797153,21.3011724 C6.55797153,21.3011724 6.61276541,8.29537713 6.55797153,6.94787974 L10.6260421,6.94787974 L10.6260421,8.98240153 C10.6177921,8.99761813 10.6070716,9.01402515 10.5993069,9.02877594 L10.6260421,9.02877594 L10.6260421,8.98240153 C11.1665251,8.00579588 12.1317709,6.61068191 14.2922909,6.61068191 C16.9690293,6.61063016 18.9756676,8.66212829 18.9756676,13.0709058 L18.9756676,13.0709058 Z M2.30218118,0.0288804894 C0.910363695,0.0288804894 0,1.09989118 0,2.50830673 C0,3.88603029 0.884025574,4.98954448 2.24818142,4.98954448 L2.27535777,4.98954448 C3.69413102,4.98954448 4.57648013,3.88623732 4.57648013,2.50830673 C4.54974495,1.09989118 3.69413102,0.0288804894 2.30218118,0.0288804894 L2.30218118,0.0288804894 Z M0.241631304,21.3011724 L4.30855483,21.3011724 L4.30855483,6.94787974 L0.241631304,6.94787974 L0.241631304,21.3011724 L0.241631304,21.3011724 Z" id="LinkedIn"></path>
                        </g>
                    </g>
                    <g id="twitter-logo" transform="translate(70.000000, 34.000000)" fill="#292929">
                        <g id="Capa_1">
                            <path d="M14.1581067,5.77662059 C15.0548863,5.68982256 15.6631833,5.21154055 15.8972807,4.56258041 C15.5737912,4.79571132 14.5696148,5.04987757 14.0150348,4.80781862 C13.9878608,4.65495303 13.9574942,4.5097525 13.9276845,4.37866264 C13.5051137,2.55829919 12.0582831,1.09174771 10.5422923,1.26891501 C10.6649466,1.21081737 10.7893457,1.15672648 10.9133735,1.10816661 C11.0802413,1.03804878 12.0592854,0.851169512 11.9051137,0.445749077 C11.7751833,0.0891498153 10.579007,0.715245441 10.3537819,0.797078613 C10.6510998,0.665901649 11.1427935,0.440261594 11.195471,0.0394576124 C10.7399722,0.1127547 10.292826,0.365396654 9.94732251,0.732753123 C10.0720557,0.575227533 10.1666821,0.383252748 10.1867657,0.176644676 C8.97187935,1.08717481 8.26219954,2.92286837 7.68787007,4.70355645 C7.23690023,4.19082525 6.83719722,3.78705977 6.47862645,3.56285691 C5.47270534,2.93001081 4.26995824,2.2697273 2.38192111,1.44747595 C2.32397216,2.18031617 2.69085847,3.15473628 3.7480464,3.80273829 C3.51899768,3.76676479 3.10013921,3.84703011 2.76514153,3.94114479 C2.90156845,4.78068607 3.34711833,5.47237017 4.55331787,5.8068453 C4.00207889,5.84952572 3.71719722,5.99668606 3.45900696,6.31387126 C3.71006961,6.89776553 4.32270998,7.58496384 5.42477958,7.4439007 C4.19949884,8.06346361 4.92517865,9.21082652 5.92219026,9.03971288 C4.22136427,11.1006981 1.53982367,10.9492261 0,9.22541626 C4.02038051,15.6523906 12.7597587,13.0263254 14.0621439,6.83592248 C15.0379211,6.845678 15.6115452,6.43938654 15.9672204,5.99145989 C15.4050302,6.10338711 14.590181,5.98771446 14.1581067,5.77662059 L14.1581067,5.77662059 Z" id="Twitter__x28_alt_x29_"></path>
                        </g>
                    </g>
                    <g id="facebook-letter-logo" transform="translate(111.000000, 99.000000)" fill="#292929">
                        <g id="Capa_1">
                            <path d="M1.69917765,3.7669707 L1.69917765,6.44491153 L0.0268285121,6.44491153 L0.0268285121,9.71950796 L1.69917765,9.71950796 L1.69917765,19.450457 L5.13453779,19.450457 L5.13453779,9.71977929 L7.43982395,9.71977929 C7.43982395,9.71977929 7.65572409,8.14963536 7.76037842,6.43283733 L5.14752803,6.43283733 L5.14752803,4.1938639 C5.14752803,3.85922305 5.52208644,3.40908588 5.89228907,3.40908588 L7.76400181,3.40908588 L7.76400181,4.52217373e-05 L5.21910928,4.52217373e-05 C1.61425924,-0.000180886948 1.69917765,3.27767151 1.69917765,3.7669707 L1.69917765,3.7669707 Z" id="Facebook"></path>
                        </g>
                    </g>
                    <circle id="Oval-4" fill="#C686D1" cx="118" cy="36" r="5"></circle>
                    <circle id="Oval-4-Copy" fill="#75699D" cx="140" cy="73" r="5"></circle>
                    <circle id="Oval-4-Copy-4" fill="#E5A332" cx="96" cy="73" r="5"></circle>
                    <use id="Rectangle-6" stroke="#EDD6F1" mask="url(#mask-2)" stroke-width="4" transform="translate(148.733467, 15.733467) rotate(-28.000000) translate(-148.733467, -15.733467) " xlink:href="#path-1"></use>
                    <circle id="Oval-9" stroke="#D6CAFF" stroke-width="2" cx="72" cy="84" r="2"></circle>
                    <polygon id="Star-2" stroke="#EDDBBC" stroke-width="2" points="174.5 71.25 172.025126 71.9748737 172.75 69.5 172.025126 67.0251263 174.5 67.75 176.974874 67.0251263 176.25 69.5 176.974874 71.9748737"></polygon>
                    <polygon id="Star-2-Copy-2" stroke="#C1C1C1" stroke-width="2" points="77.5 16.25 75.0251263 16.9748737 75.75 14.5 75.0251263 12.0251263 77.5 12.75 79.9748737 12.0251263 79.25 14.5 79.9748737 16.9748737"></polygon>
                </g>
            </g>
        </g>
    </g>
</svg>