<?xml version="1.0" encoding="UTF-8" standalone="no"?>
<svg width="243px" height="131px" viewBox="0 0 243 131" version="1.1" xmlns="http://www.w3.org/2000/svg" xmlns:xlink="http://www.w3.org/1999/xlink">
    <!-- Generator: Sketch 40.3 (33839) - http://www.bohemiancoding.com/sketch -->
    <title>ic_search</title>
    <desc>Created with Sketch.</desc>
    <defs>
        <rect id="path-1" x="90.233467" y="41.233467" width="7" height="7" rx="1"></rect>
        <mask id="mask-2" maskContentUnits="userSpaceOnUse" maskUnits="objectBoundingBox" x="0" y="0" width="7" height="7" fill="white">
            <use xlink:href="#path-1"></use>
        </mask>
    </defs>
    <g id="Page-1" stroke="none" stroke-width="1" fill="none" fill-rule="evenodd">
        <g id="Artboard" transform="translate(-861.000000, -851.000000)">
            <g id="search" transform="translate(861.000000, 851.000000)">
                <g transform="translate(2.000000, 0.000000)">
                    <path d="M54.2849399,0 C54.2849399,0 44.72013,1.52568181 43.8455705,12.5331964 C42.9710111,23.5407109 54.4761119,26.257329 54.4761119,26.257329 C54.4761119,26.257329 64.1379341,28.17141 64.1379341,38.2177664 C64.1379341,48.2641227 56.5706897,49.1189289 56.5706897,49.1189289 C54.4843217,49.8356931 50.9989414,50.4167453 48.8002071,50.4167453 L13.0983696,50.4167453 C10.8932184,50.4167453 7.49865378,51.2260141 5.67613197,52.460297 C5.67613197,52.460297 0,53.916039 0,63.9233311 C6.86355631e-16,71.5446462 5.23794385,75.3971874 8.21808687,76.7625354 C9.15106925,77.1899799 10.7753343,77.3008534 10.7753343,77.3008534 L50.6940232,77.3008534 C50.6940232,77.3008534 52.9627514,77.3389093 54.9312416,78.4024118 C57.9739128,80.0462547 61.1990435,83.7120774 61.1990435,90.1546488 C61.1990435,96.8143168 58.533622,101.289913 55.451776,103.210516 C53.623402,104.349957 50.6940232,104.164524 50.6940232,104.164524 L40.8449272,104.164524 C40.8449272,104.164524 38.6995204,104.190462 36.5041841,105.113161 C32.9650864,106.600643 28.7096957,110.203423 28.7096957,118.17253 C28.7096957,126.94837 33.4332343,129.620627 37.0247185,130.496136 C38.7176009,130.908816 40.8449272,131 40.8449272,131 L173.174662,131 L173.174662,0.256346557 L54.2849399,0 Z" id="Path-7-Copy-8" fill="#FBF7FC"></path>
                    <path d="M121.28494,-1.13686838e-13 C121.28494,-1.13686838e-13 111.72013,1.52568181 110.845571,12.5331964 C109.971011,23.5407109 121.476112,26.257329 121.476112,26.257329 C121.476112,26.257329 131.137934,28.17141 131.137934,38.2177664 C131.137934,48.2641227 123.57069,49.1189289 123.57069,49.1189289 C121.484322,49.8356931 117.998941,50.4167453 115.800207,50.4167453 L80.0983696,50.4167453 C77.8932184,50.4167453 74.4986538,51.2260141 72.676132,52.460297 C72.676132,52.460297 67,53.916039 67,63.9233311 C67,71.5446462 72.2379439,75.3971874 75.2180869,76.7625354 C76.1510692,77.1899799 77.7753343,77.3008534 77.7753343,77.3008534 L117.694023,77.3008534 C117.694023,77.3008534 119.962751,77.3389093 121.931242,78.4024118 C124.973913,80.0462547 128.199043,83.7120774 128.199043,90.1546488 C128.199043,96.8143168 125.533622,101.289913 122.451776,103.210516 C120.623402,104.349957 117.694023,104.164524 117.694023,104.164524 L107.844927,104.164524 C107.844927,104.164524 105.69952,104.190462 103.504184,105.113161 C99.9650864,106.600643 95.7096957,110.203423 95.7096957,118.17253 C95.7096957,126.94837 100.433234,129.620627 104.024719,130.496136 C105.717601,130.908816 107.844927,131 107.844927,131 L240.174662,131 L240.174662,0.256346557 L121.28494,-1.13686838e-13 Z" id="Path-7-Copy-9" fill="#FBF7FC" transform="translate(153.587331, 65.500000) rotate(-180.000000) translate(-153.587331, -65.500000) "></path>
                    <circle id="Oval-3" fill="#FFFFFF" cx="140" cy="54" r="21"></circle>
                    <path d="M120.578699,80.2661439 L113.997019,74 L91.6975826,95.4749892 C91.6975826,95.4749892 87.8769891,106.468966 98.1183102,102.210095 C108.359631,97.9512248 120.578699,80.2661439 120.578699,80.2661439 Z" id="Path-6" fill="#E5A332"></path>
                    <path d="M132.0629,53.7261109 C132.0629,53.7261109 126.208527,54.3418351 127.090511,60.4180906 C127.972494,66.494346 130.414312,64.9716766 135.832131,64.9716766 C141.24995,64.9716766 152.714625,64.5456619 152.714625,64.5456619 C152.714625,64.5456619 155.673429,60.5517748 154.194027,57.7532803 C152.714625,54.9547858 147.424943,53 147.424943,53 C147.424943,53 143.567514,58.0295242 140.873304,56.9073529 C139.786398,56.4546432 139.492896,57.4683167 137.918382,56.9073529 C135.590011,56.0778063 132.0629,53.7261109 132.0629,53.7261109 Z" id="Path-5" fill="#9582D6"></path>
                    <g id="friend-request-copy" transform="translate(125.000000, 37.000000)" fill="#292929">
                        <g id="Capa_1">
                            <g id="group">
                                <g id="Group">
                                    <path d="M25.278,29.273 L3.963,29.273 C1.777,29.273 0,27.496 0,25.31 L0,23.998 C0,19.736 3.334,16.233 7.591,16.023 L8.071,16 L8.363,16.382 C9.97,18.49 12.248,19.7 14.612,19.7 C16.975,19.7 19.254,18.49 20.863,16.382 L21.153,16.001 L21.632,16.023 C25.898,16.223 29.239,19.726 29.239,23.998 L29.239,25.31 C29.241,27.496 27.463,29.273 25.278,29.273 L25.278,29.273 Z M7.227,17.889 C4.165,18.265 1.829,20.866 1.829,23.998 L1.829,25.31 C1.829,26.487 2.787,27.445 3.964,27.445 L25.278,27.445 C26.455,27.445 27.413,26.487 27.413,25.31 L27.413,23.998 C27.413,20.858 25.07,18.257 22.001,17.888 C20.063,20.208 17.397,21.529 14.613,21.529 C11.829,21.529 9.163,20.209 7.227,17.889 L7.227,17.889 Z" id="Shape"></path>
                                    <path d="M14.771,18.973 C10.486,18.973 7,14.717 7,9.487 C7,4.256 10.485,0 14.771,0 C19.057,0 22.542,4.256 22.542,9.487 C22.541,14.717 19.056,18.973 14.771,18.973 L14.771,18.973 Z M14.771,1.827 C11.495,1.827 8.829,5.263 8.829,9.486 C8.829,13.709 11.495,17.144 14.771,17.144 C18.047,17.144 20.713,13.708 20.713,9.486 C20.713,5.263 18.047,1.827 14.771,1.827 L14.771,1.827 Z" id="Shape"></path>
                                </g>
                            </g>
                        </g>
                    </g>
                    <g id="search-(2)" transform="translate(89.000000, 30.000000)" stroke-width="0.5" stroke="#FFFFFF" fill="#292929">
                        <g id="Layer_1">
                            <path d="M50.6957353,0 C37.3057353,0 26.4122059,10.8299708 26.4122059,24.1415205 C26.4122059,30.3147661 28.7561765,35.9535088 32.6045588,40.2267544 L27.7855882,45.0175439 L25.5698529,42.8147661 C24.9841176,42.2326023 24.0344118,42.2326023 23.4485294,42.8147661 L1.84426471,64.2926901 C0.668676471,65.4614035 0.0210294118,67.0156433 0.0210294118,68.6685673 C0.0210294118,70.321345 0.668529412,71.8754386 1.84426471,73.0444444 C3.05779412,74.250731 4.65176471,74.8539474 6.24573529,74.8539474 C7.83970588,74.8539474 9.43367647,74.250731 10.6473529,73.0444444 L32.2514706,51.5665205 C32.8372059,50.9842105 32.8372059,50.0400585 32.2514706,49.4576023 L29.9067647,47.1266082 L34.7382353,42.3233918 C39.0088235,46.0327485 44.5926471,48.2831871 50.6957353,48.2831871 C64.0857353,48.2831871 74.9792647,37.4532164 74.9792647,24.1416667 C74.9792647,10.830117 64.0855882,0 50.6957353,0 L50.6957353,0 Z M8.52602941,70.9353801 C7.26882353,72.1853801 5.22279412,72.1853801 3.96544118,70.9353801 C3.35632353,70.3298246 3.02088235,69.5247076 3.02088235,68.6685673 C3.02088235,67.8121345 3.35632353,67.0071637 3.96544118,66.4017544 L24.5091176,45.9782164 L29.0697059,50.5119883 L8.52602941,70.9353801 L8.52602941,70.9353801 Z M50.6957353,45.300731 C38.9598529,45.300731 29.4122059,35.8087719 29.4122059,24.1416667 C29.4122059,12.4745614 38.9598529,2.98230994 50.6957353,2.98230994 C62.4316176,2.98230994 71.9792647,12.474269 71.9792647,24.1413743 C71.9792647,35.8084795 62.4316176,45.300731 50.6957353,45.300731 L50.6957353,45.300731 Z" id="Shape"></path>
                            <path d="M25.6611765,48.8252924 C25.0754412,48.2431287 24.1257353,48.2431287 23.5398529,48.8252924 L17.0152941,55.3118421 C16.4295588,55.894152 16.4295588,56.8383041 17.0152941,57.4207602 C17.3082353,57.7118421 17.6920588,57.8574561 18.0758824,57.8574561 C18.4597059,57.8574561 18.8436765,57.7116959 19.1364706,57.4207602 L25.6611765,50.9342105 C26.2469118,50.3519006 26.2469118,49.4077485 25.6611765,48.8252924 L25.6611765,48.8252924 Z" id="Shape"></path>
                        </g>
                    </g>
                    <use id="Rectangle-6-Copy-3" stroke="#EDD6F1" mask="url(#mask-2)" stroke-width="4" transform="translate(93.733467, 44.733467) rotate(-28.000000) translate(-93.733467, -44.733467) " xlink:href="#path-1"></use>
                    <circle id="Oval-9-Copy-5" stroke="#D6CAFF" stroke-width="2" cx="126" cy="104" r="2"></circle>
                    <circle id="Oval-9-Copy-6" stroke="#C7C7C7" stroke-width="2" cx="150" cy="17" r="2"></circle>
                    <polygon id="Star-2-Copy-4" stroke="#EDDBBC" stroke-width="2" points="105.5 13.25 103.025126 13.9748737 103.75 11.5 103.025126 9.02512627 105.5 9.75 107.974874 9.02512627 107.25 11.5 107.974874 13.9748737"></polygon>
                </g>
            </g>
        </g>
    </g>
</svg>