<?xml version="1.0" encoding="UTF-8" standalone="no"?>
<svg width="23px" height="18px" viewBox="0 0 23 18" version="1.1" xmlns="http://www.w3.org/2000/svg" xmlns:xlink="http://www.w3.org/1999/xlink">
    <!-- Generator: Sketch 40.3 (33839) - http://www.bohemiancoding.com/sketch -->
    <title>ic_image</title>
    <desc>Created with Sketch.</desc>
    <defs></defs>
    <g id="Page-1" stroke="none" stroke-width="1" fill="none" fill-rule="evenodd">
        <g id="edit-profile-with-dropdown" transform="translate(-535.000000, -325.000000)" stroke-width="0.75" stroke="#FFFFFF" fill="#FFFFFF">
            <g id="header" transform="translate(98.000000, 0.000000)">
                <g id="bg">
                    <g id="landscape-image" transform="translate(437.000000, 325.000000)">
                        <g id="Capa_1">
                            <g id="Group">
                                <path d="M21.5453017,1.01300829 L1.43028432,1.01300829 C1.19263829,1.01300829 1,1.20499534 1,1.44174222 L1,16.0584824 C1,16.2952293 1.19263829,16.4872163 1.43028432,16.4872163 L21.5453017,16.4872163 C21.7829047,16.4872163 21.9755861,16.2952293 21.9755861,16.0584824 L21.9755861,1.44174222 C21.9755861,1.20499534 21.7829478,1.01300829 21.5453017,1.01300829 L21.5453017,1.01300829 Z M21.1150174,1.87047615 L21.1150174,11.9558417 L16.639286,8.52296907 C16.4945383,8.41188411 16.2952306,8.40408116 16.1420925,8.50337593 L13.2033366,10.4093555 L7.40547055,6.44712512 C7.2681238,6.35327527 7.08869524,6.34680138 6.94480816,6.43066174 L1.86056864,9.39475665 L1.86056864,1.87047615 L21.1150174,1.87047615 L21.1150174,1.87047615 Z M1.86056864,15.6297485 L1.86056864,10.388176 L7.14385768,7.30810861 L12.9537287,11.2785278 C13.0973146,11.3765364 13.2860373,11.3788515 13.4318176,11.2842728 L16.3559868,9.38776829 L21.1150174,13.0379232 L21.1150174,15.6297485 L1.86056864,15.6297485 L1.86056864,15.6297485 Z" id="Shape"></path>
                                <path d="M13.230043,7.29220166 C14.4584221,7.29220166 15.4577439,6.29652762 15.4577439,5.07262155 C15.4577439,3.84890331 14.4584221,2.8533232 13.230043,2.8533232 C12.0017111,2.8533232 11.0024365,3.84890331 11.0024365,5.07262155 C11.0024365,6.29652762 12.0017111,7.29220166 13.230043,7.29220166 L13.230043,7.29220166 Z M13.230043,3.79259669 C13.9386127,3.79259669 14.5151209,4.36683978 14.5151209,5.07266851 C14.5151209,5.77863812 13.9386598,6.3530221 13.230043,6.3530221 C12.5215205,6.3530221 11.9450594,5.77868508 11.9450594,5.07266851 C11.9450594,4.36679282 12.5215205,3.79259669 13.230043,3.79259669 L13.230043,3.79259669 Z" id="Shape"></path>
                            </g>
                        </g>
                    </g>
                </g>
            </g>
        </g>
    </g>
</svg>