<?xml version="1.0" encoding="UTF-8" standalone="no"?>
<svg width="21px" height="17px" viewBox="0 0 21 17" version="1.1" xmlns="http://www.w3.org/2000/svg" xmlns:xlink="http://www.w3.org/1999/xlink">
    <!-- Generator: Sketch 40.3 (33839) - http://www.bohemiancoding.com/sketch -->
    <title>ic_photo</title>
    <desc>Created with Sketch.</desc>
    <defs></defs>
    <g id="Page-1" stroke="none" stroke-width="1" fill="none" fill-rule="evenodd">
        <g id="edit-profile-with-dropdown" transform="translate(-154.000000, -262.000000)" stroke="#FFFEFE" fill="#FFFFFF">
            <g id="header" transform="translate(98.000000, 0.000000)">
                <g id="photo" transform="translate(29.000000, 83.000000)">
                    <g id="photo-camera-(1)" transform="translate(27.000000, 179.000000)">
                        <g id="Capa_1" transform="translate(1.000000, 1.000000)">
                            <g id="Group">
                                <path d="M0,4.59233668 L0,12.7405779 C0,13.9842965 1.03918367,14.9943467 2.31877551,14.9943467 L16.6812245,14.9943467 C17.9608163,14.9943467 19,13.9842965 19,12.7405779 L19,4.59233668 C19,3.4089196 18.0112245,2.44786432 16.7936735,2.44786432 L13.7071429,2.44786432 L13.6334694,2.13505025 C13.334898,0.880025126 12.1987755,0.00565326633 10.8726531,0.00565326633 L8.12346939,0.00565326633 C6.80122449,0.00565326633 5.66510204,0.880025126 5.36265306,2.13505025 L5.28897959,2.44786432 L2.20632653,2.44786432 C0.98877551,2.44786432 0,3.41268844 0,4.59233668 L0,4.59233668 Z M5.66897959,3.37123116 C5.89,3.37123116 6.08,3.22424623 6.13040816,3.01319095 L6.28938776,2.34233668 C6.49102041,1.50942211 7.24326531,0.929020101 8.12346939,0.929020101 L10.8726531,0.929020101 C11.7528571,0.929020101 12.505102,1.50942211 12.7067347,2.34233668 L12.8657143,3.01319095 C12.9161224,3.22047739 13.1061224,3.37123116 13.3271429,3.37123116 L16.7897959,3.37123116 C17.4838776,3.37123116 18.0461224,3.91771357 18.0461224,4.59233668 L18.0461224,12.7405779 C18.0461224,13.4755025 17.4334694,14.0709799 16.6773469,14.0709799 L2.31877551,14.0709799 C1.56265306,14.0709799 0.95,13.4755025 0.95,12.7405779 L0.95,4.59233668 C0.95,3.91771357 1.5122449,3.37123116 2.20632653,3.37123116 L5.66897959,3.37123116 L5.66897959,3.37123116 Z" id="Shape"></path>
                                <ellipse id="Oval" cx="3.2144898" cy="5.34233668" rx="0.635918367" ry="0.618090452"></ellipse>
                                <path d="M9.4304545,12.3529892 C11.6290259,12.3529892 13.4204545,10.6117832 13.4204545,8.47484853 C13.4204545,6.33791386 11.6290259,4.59670783 9.4304545,4.59670783 C7.23188307,4.59670783 5.4404545,6.33414502 5.4404545,8.47484853 C5.4404545,10.6155521 7.23188307,12.3529892 9.4304545,12.3529892 L9.4304545,12.3529892 Z M9.4304545,5.52007466 C11.1055565,5.52007466 12.4704545,6.84670783 12.4704545,8.47484853 C12.4704545,10.1029892 11.1055565,11.4296224 9.4304545,11.4296224 C7.75535245,11.4296224 6.3904545,10.1029892 6.3904545,8.47484853 C6.3904545,6.84670783 7.75535245,5.52007466 9.4304545,5.52007466 L9.4304545,5.52007466 Z" id="Shape"></path>
                            </g>
                        </g>
                    </g>
                </g>
            </g>
        </g>
    </g>
</svg>